<?xml version="1.0" encoding="UTF-8" standalone="no"?>
<!DOCTYPE svg PUBLIC "-//W3C//DTD SVG 1.1//EN" "http://www.w3.org/Graphics/SVG/1.1/DTD/svg11.dtd">
<svg width="100%" height="100%" viewBox="0 0 940 249" version="1.1" xmlns="http://www.w3.org/2000/svg" xmlns:xlink="http://www.w3.org/1999/xlink" xml:space="preserve" xmlns:serif="http://www.serif.com/" style="fill-rule:evenodd;clip-rule:evenodd;stroke-linejoin:round;stroke-miterlimit:2;">
    <g id="logo" transform="matrix(0.481064,0,0,0.199679,1117.993859,-229.032077)">
        <rect x="-2324" y="1147" width="1954" height="1247" style="fill:none;"/>
        <g transform="matrix(36.354683,0,0,87.585206,-18596.78232,-28212.633752)">
            <rect x="458.99" y="338.658" width="2.043" height="8.73" style="fill-rule:nonzero;"/>
            <path d="M465.067,347.511C464.384,347.511 463.796,347.37 463.302,347.087C462.809,346.804 462.431,346.41 462.167,345.903C461.904,345.397 461.772,344.808 461.772,344.136C461.772,343.461 461.904,342.871 462.167,342.364C462.431,341.857 462.809,341.462 463.302,341.179C463.796,340.897 464.384,340.755 465.067,340.755C465.75,340.755 466.338,340.897 466.828,341.179C467.319,341.462 467.696,341.857 467.96,342.364C468.223,342.871 468.355,343.461 468.355,344.136C468.355,344.808 468.223,345.397 467.96,345.903C467.696,346.41 467.319,346.804 466.828,347.087C466.338,347.37 465.75,347.511 465.067,347.511ZM465.067,345.949C465.327,345.949 465.547,345.872 465.727,345.72C465.906,345.568 466.042,345.355 466.135,345.08C466.227,344.806 466.273,344.488 466.273,344.127C466.273,343.762 466.227,343.444 466.135,343.173C466.042,342.903 465.906,342.692 465.727,342.542C465.547,342.393 465.327,342.318 465.067,342.318C464.804,342.318 464.583,342.393 464.403,342.542C464.222,342.692 464.086,342.902 463.994,343.173C463.902,343.443 463.856,343.761 463.856,344.127C463.856,344.488 463.902,344.806 463.994,345.08C464.086,345.355 464.222,345.568 464.403,345.72C464.583,345.872 464.804,345.949 465.067,345.949Z" style="fill-rule:nonzero;"/>
            <path d="M472.129,347.511C471.446,347.511 470.859,347.37 470.367,347.087C469.875,346.804 469.498,346.41 469.234,345.903C468.971,345.397 468.839,344.808 468.839,344.136C468.839,343.461 468.971,342.871 469.234,342.364C469.498,341.857 469.875,341.462 470.367,341.179C470.859,340.897 471.446,340.755 472.129,340.755C472.549,340.755 472.933,340.81 473.279,340.919C473.626,341.027 473.93,341.183 474.192,341.384C474.454,341.586 474.666,341.83 474.829,342.117C474.991,342.404 475.097,342.726 475.148,343.082L473.262,343.396C473.23,343.225 473.182,343.073 473.119,342.94C473.055,342.807 472.977,342.694 472.884,342.601C472.792,342.507 472.684,342.437 472.563,342.389C472.441,342.342 472.305,342.318 472.156,342.318C471.893,342.318 471.671,342.39 471.487,342.534C471.304,342.678 471.164,342.885 471.067,343.155C470.971,343.425 470.922,343.749 470.922,344.127C470.922,344.5 470.971,344.823 471.067,345.096C471.164,345.369 471.304,345.579 471.487,345.727C471.671,345.875 471.893,345.949 472.156,345.949C472.306,345.949 472.443,345.924 472.565,345.874C472.688,345.824 472.797,345.752 472.892,345.656C472.987,345.561 473.067,345.443 473.13,345.304C473.194,345.164 473.24,345.006 473.269,344.831L475.154,345.14C475.104,345.507 474.997,345.836 474.835,346.127C474.672,346.418 474.461,346.667 474.199,346.873C473.938,347.08 473.633,347.238 473.284,347.347C472.935,347.456 472.55,347.511 472.129,347.511Z" style="fill-rule:nonzero;"/>
            <path d="M477.825,347.505C477.408,347.505 477.036,347.433 476.71,347.291C476.384,347.148 476.129,346.933 475.945,346.647C475.76,346.361 475.668,346.002 475.668,345.569C475.668,345.206 475.732,344.9 475.86,344.651C475.987,344.402 476.164,344.199 476.39,344.044C476.616,343.888 476.875,343.769 477.169,343.686C477.462,343.604 477.774,343.549 478.106,343.521C478.479,343.489 478.778,343.454 479.005,343.418C479.232,343.381 479.398,343.326 479.502,343.253C479.606,343.179 479.658,343.075 479.658,342.942L479.658,342.915C479.658,342.764 479.623,342.635 479.553,342.531C479.482,342.426 479.381,342.346 479.249,342.29C479.117,342.234 478.957,342.207 478.768,342.207C478.58,342.207 478.414,342.235 478.268,342.291C478.123,342.347 478.003,342.425 477.909,342.526C477.815,342.626 477.749,342.745 477.711,342.883L475.856,342.642C475.944,342.267 476.114,341.939 476.366,341.656C476.619,341.374 476.949,341.153 477.356,340.994C477.764,340.835 478.241,340.755 478.788,340.755C479.194,340.755 479.573,340.803 479.927,340.899C480.28,340.995 480.59,341.136 480.856,341.322C481.121,341.508 481.329,341.736 481.478,342.007C481.627,342.278 481.702,342.589 481.702,342.941L481.702,347.388L479.778,347.388L479.778,346.471L479.726,346.471C479.607,346.694 479.457,346.883 479.277,347.036C479.097,347.189 478.886,347.306 478.645,347.385C478.404,347.465 478.131,347.505 477.825,347.505ZM478.447,346.15C478.678,346.15 478.885,346.104 479.07,346.011C479.255,345.918 479.402,345.789 479.512,345.625C479.621,345.461 479.676,345.272 479.676,345.057L479.676,344.429C479.618,344.459 479.545,344.488 479.457,344.515C479.369,344.543 479.272,344.568 479.167,344.59C479.061,344.613 478.956,344.632 478.851,344.649C478.745,344.667 478.644,344.682 478.549,344.697C478.348,344.725 478.178,344.773 478.037,344.84C477.897,344.908 477.79,344.994 477.716,345.099C477.643,345.204 477.606,345.329 477.606,345.475C477.606,345.622 477.642,345.745 477.715,345.845C477.788,345.946 477.887,346.022 478.013,346.073C478.139,346.125 478.284,346.15 478.447,346.15Z" style="fill-rule:nonzero;"/>
            <rect x="482.694" y="338.658" width="2.043" height="8.73" style="fill-rule:nonzero;"/>
            <path d="M487.56,347.505C487.143,347.505 486.771,347.433 486.445,347.291C486.119,347.148 485.864,346.933 485.68,346.647C485.495,346.361 485.403,346.002 485.403,345.569C485.403,345.206 485.467,344.9 485.595,344.651C485.722,344.402 485.899,344.199 486.125,344.044C486.351,343.888 486.61,343.769 486.904,343.686C487.197,343.604 487.509,343.549 487.841,343.521C488.214,343.489 488.513,343.454 488.74,343.418C488.967,343.381 489.133,343.326 489.237,343.253C489.341,343.179 489.393,343.075 489.393,342.942L489.393,342.915C489.393,342.764 489.358,342.635 489.288,342.531C489.217,342.426 489.116,342.346 488.984,342.29C488.852,342.234 488.692,342.207 488.503,342.207C488.315,342.207 488.149,342.235 488.003,342.291C487.858,342.347 487.738,342.425 487.644,342.526C487.55,342.626 487.484,342.745 487.446,342.883L485.591,342.642C485.679,342.267 485.849,341.939 486.101,341.656C486.354,341.374 486.684,341.153 487.091,340.994C487.499,340.835 487.976,340.755 488.523,340.755C488.929,340.755 489.308,340.803 489.662,340.899C490.015,340.995 490.325,341.136 490.591,341.322C490.856,341.508 491.064,341.736 491.213,342.007C491.362,342.278 491.437,342.589 491.437,342.941L491.437,347.388L489.513,347.388L489.513,346.471L489.461,346.471C489.342,346.694 489.192,346.883 489.012,347.036C488.832,347.189 488.621,347.306 488.38,347.385C488.139,347.465 487.866,347.505 487.56,347.505ZM488.183,346.15C488.413,346.15 488.62,346.104 488.805,346.011C488.99,345.918 489.137,345.789 489.247,345.625C489.356,345.461 489.411,345.272 489.411,345.057L489.411,344.429C489.353,344.459 489.28,344.488 489.192,344.515C489.104,344.543 489.007,344.568 488.902,344.59C488.797,344.613 488.691,344.632 488.586,344.649C488.48,344.667 488.379,344.682 488.284,344.697C488.083,344.725 487.913,344.773 487.772,344.84C487.632,344.908 487.525,344.994 487.451,345.099C487.378,345.204 487.341,345.329 487.341,345.475C487.341,345.622 487.377,345.745 487.45,345.845C487.523,345.946 487.622,346.022 487.748,346.073C487.874,346.125 488.019,346.15 488.183,346.15Z" style="fill-rule:nonzero;"/>
            <path d="M492.427,347.388L492.427,340.837L494.472,340.837L494.472,347.388L492.427,347.388ZM493.446,340.07C493.157,340.07 492.909,339.973 492.702,339.78C492.495,339.586 492.392,339.355 492.392,339.085C492.392,338.812 492.495,338.58 492.702,338.388C492.909,338.197 493.157,338.101 493.446,338.101C493.739,338.101 493.989,338.196 494.196,338.385C494.403,338.575 494.507,338.808 494.507,339.085C494.507,339.359 494.403,339.591 494.196,339.783C493.989,339.974 493.739,340.07 493.446,340.07Z" style="fill-rule:nonzero;"/>
            <path d="M495.474,347.388L495.474,346.211L498.529,342.477L498.529,342.435L495.573,342.435L495.573,340.837L500.966,340.837L500.966,342.134L498.132,345.748L498.132,345.791L501.074,345.791L501.074,347.388L495.474,347.388Z" style="fill-rule:nonzero;"/>
        </g>
        <g transform="matrix(2.078723,0,0,5.008032,2027.156498,-8371.470802)">
            <g transform="matrix(21.140991,10.570495,0,21.140991,-11856.768439,-10137.780473)">
                <path d="M463.677,345.496L463.677,347.53L461.974,347.577L461.974,338.685L467.271,338.658L467.271,347.388L465.474,347.435L465.474,345.496L463.677,345.496ZM465.474,343.557L465.474,340.671L463.677,340.624L463.677,343.509L465.474,343.557Z" style="fill:rgb(30,108,93);"/>
            </g>
            <g transform="matrix(21.140991,-10.570495,-0,21.140991,-11681.786554,-346.689828)">
                <path d="M460.887,338.685L460.887,347.388L458.995,347.388L458.995,338.658L460.887,338.685Z" style="fill:rgb(23,67,58);fill-rule:nonzero;"/>
            </g>
        </g>
    </g>
</svg>
